<mxfile host="65bd71144e">
    <diagram id="PJhBvZbjIUu8iOUgB9s-" name="ページ1">
        <mxGraphModel dx="617" dy="440" grid="1" gridSize="10" guides="1" tooltips="1" connect="1" arrows="1" fold="1" page="1" pageScale="1" pageWidth="827" pageHeight="1169" math="0" shadow="0">
            <root>
                <mxCell id="0"/>
                <mxCell id="1" parent="0"/>
                <mxCell id="42" value="#006 過去の日記を編集する" style="swimlane;whiteSpace=wrap;html=1;swimlaneLine=1;startSize=20;rounded=0;" parent="1" vertex="1">
                    <mxGeometry x="40" y="40" width="760" height="840" as="geometry"/>
                </mxCell>
                <mxCell id="47" value="ユーザー" style="swimlane;whiteSpace=wrap;html=1;" parent="42" vertex="1">
                    <mxGeometry y="20" width="320" height="820" as="geometry">
                        <mxRectangle y="20" width="90" height="30" as="alternateBounds"/>
                    </mxGeometry>
                </mxCell>
                <mxCell id="60" style="edgeStyle=none;html=1;exitX=0.5;exitY=1;exitDx=0;exitDy=0;entryX=0.5;entryY=0;entryDx=0;entryDy=0;rounded=0;" parent="47" source="49" target="50" edge="1">
                    <mxGeometry relative="1" as="geometry"/>
                </mxCell>
                <mxCell id="49" value="" style="ellipse;whiteSpace=wrap;html=1;aspect=fixed;fillColor=#000000;" parent="47" vertex="1">
                    <mxGeometry x="140" y="40" width="40" height="40" as="geometry"/>
                </mxCell>
                <mxCell id="50" value="「日記の編集」&lt;br&gt;を選択する" style="rounded=1;whiteSpace=wrap;html=1;fillColor=none;" parent="47" vertex="1">
                    <mxGeometry x="90" y="100" width="140" height="40" as="geometry"/>
                </mxCell>
                <mxCell id="58" value="日記の記録内容を編集し，&lt;br&gt;「内容確認」を選択する" style="rounded=1;whiteSpace=wrap;html=1;fillColor=none;" parent="47" vertex="1">
                    <mxGeometry x="90" y="280" width="170" height="60" as="geometry"/>
                </mxCell>
                <mxCell id="81" value="記録内容について，&lt;br&gt;「修正」か「確定」かを&lt;br&gt;選択する" style="rounded=1;whiteSpace=wrap;html=1;fillColor=none;" parent="47" vertex="1">
                    <mxGeometry x="75" y="450" width="170" height="50" as="geometry"/>
                </mxCell>
                <mxCell id="83" value="" style="rhombus;whiteSpace=wrap;html=1;rounded=0;shadow=0;sketch=0;fillStyle=auto;strokeColor=default;strokeWidth=1;fontColor=#000000;fillColor=none;" parent="47" vertex="1">
                    <mxGeometry x="230" y="560" width="40" height="25" as="geometry"/>
                </mxCell>
                <mxCell id="84" style="edgeStyle=orthogonalEdgeStyle;html=1;exitX=0.5;exitY=1;exitDx=0;exitDy=0;entryX=0;entryY=0.5;entryDx=0;entryDy=0;fontColor=#000000;rounded=0;" parent="47" source="81" target="83" edge="1">
                    <mxGeometry relative="1" as="geometry"/>
                </mxCell>
                <mxCell id="104" style="edgeStyle=orthogonalEdgeStyle;rounded=0;html=1;exitX=1;exitY=0.5;exitDx=0;exitDy=0;entryX=0;entryY=0.5;entryDx=0;entryDy=0;" edge="1" parent="47" source="100" target="103">
                    <mxGeometry relative="1" as="geometry"/>
                </mxCell>
                <mxCell id="100" value="記録内容の編集について，&lt;br&gt;「取り消し」か「確定」かを&lt;br&gt;選択する" style="rounded=1;whiteSpace=wrap;html=1;fillColor=none;" vertex="1" parent="47">
                    <mxGeometry x="75" y="200" width="170" height="50" as="geometry"/>
                </mxCell>
                <mxCell id="103" value="" style="rhombus;whiteSpace=wrap;html=1;rounded=0;shadow=0;sketch=0;fillStyle=auto;strokeColor=default;strokeWidth=1;fontColor=#000000;fillColor=none;" vertex="1" parent="47">
                    <mxGeometry x="270" y="212.5" width="40" height="25" as="geometry"/>
                </mxCell>
                <mxCell id="48" value="システム" style="swimlane;whiteSpace=wrap;html=1;" parent="42" vertex="1">
                    <mxGeometry x="320" y="20" width="440" height="820" as="geometry">
                        <mxRectangle x="320" y="20" width="90" height="30" as="alternateBounds"/>
                    </mxGeometry>
                </mxCell>
                <mxCell id="51" value="「日記を編集する画面」&lt;br&gt;を表示する" style="rounded=1;whiteSpace=wrap;html=1;fillColor=none;" parent="48" vertex="1">
                    <mxGeometry x="99.09" y="260" width="170" height="40" as="geometry"/>
                </mxCell>
                <mxCell id="74" style="edgeStyle=orthogonalEdgeStyle;html=1;exitX=1;exitY=0.5;exitDx=0;exitDy=0;entryX=0;entryY=0.5;entryDx=0;entryDy=0;fontColor=#000000;rounded=0;" parent="48" source="70" target="73" edge="1">
                    <mxGeometry relative="1" as="geometry"/>
                </mxCell>
                <mxCell id="70" value="記録内容の文字数制限を&lt;br&gt;確認する" style="rounded=1;whiteSpace=wrap;html=1;fillColor=none;" parent="48" vertex="1">
                    <mxGeometry x="70" y="337.5" width="170" height="50" as="geometry"/>
                </mxCell>
                <mxCell id="71" value="「操作の確認を行う画面」&lt;br&gt;を表示する" style="rounded=1;whiteSpace=wrap;html=1;fillColor=none;" parent="48" vertex="1">
                    <mxGeometry x="135" y="450" width="170" height="50" as="geometry"/>
                </mxCell>
                <mxCell id="69" value="" style="group" parent="48" vertex="1" connectable="0">
                    <mxGeometry x="200" y="770" width="140" height="40" as="geometry"/>
                </mxCell>
                <mxCell id="64" value="" style="ellipse;shape=doubleEllipse;whiteSpace=wrap;html=1;aspect=fixed;rounded=0;fillColor=none;" parent="69" vertex="1">
                    <mxGeometry width="40" height="40" as="geometry"/>
                </mxCell>
                <mxCell id="68" value="" style="ellipse;whiteSpace=wrap;html=1;aspect=fixed;fillColor=#000000;" parent="69" vertex="1">
                    <mxGeometry x="5.003636363636363" y="5" width="30" height="30" as="geometry"/>
                </mxCell>
                <mxCell id="76" style="edgeStyle=orthogonalEdgeStyle;html=1;exitX=1;exitY=0.5;exitDx=0;exitDy=0;fontColor=#000000;rounded=0;" parent="48" source="73" target="75" edge="1">
                    <mxGeometry relative="1" as="geometry"/>
                </mxCell>
                <mxCell id="80" style="edgeStyle=orthogonalEdgeStyle;html=1;exitX=0.5;exitY=1;exitDx=0;exitDy=0;entryX=0.5;entryY=0;entryDx=0;entryDy=0;fontColor=#000000;rounded=0;" parent="48" source="73" target="71" edge="1">
                    <mxGeometry relative="1" as="geometry"/>
                </mxCell>
                <mxCell id="73" value="" style="rhombus;whiteSpace=wrap;html=1;rounded=0;shadow=0;sketch=0;fillStyle=auto;strokeColor=default;strokeWidth=1;fontColor=#000000;fillColor=none;" parent="48" vertex="1">
                    <mxGeometry x="300" y="350" width="40" height="25" as="geometry"/>
                </mxCell>
                <mxCell id="77" style="edgeStyle=orthogonalEdgeStyle;html=1;exitX=0.5;exitY=0;exitDx=0;exitDy=0;entryX=1;entryY=0.5;entryDx=0;entryDy=0;fontColor=#000000;rounded=0;" parent="48" source="75" target="51" edge="1">
                    <mxGeometry relative="1" as="geometry"/>
                </mxCell>
                <mxCell id="75" value="" style="rhombus;whiteSpace=wrap;html=1;rounded=0;shadow=0;sketch=0;fillStyle=auto;strokeColor=default;strokeWidth=1;fontColor=#000000;fillColor=none;" parent="48" vertex="1">
                    <mxGeometry x="380" y="350" width="40" height="25" as="geometry"/>
                </mxCell>
                <mxCell id="90" style="edgeStyle=orthogonalEdgeStyle;rounded=0;html=1;exitX=0.5;exitY=1;exitDx=0;exitDy=0;entryX=0.5;entryY=0;entryDx=0;entryDy=0;fontColor=#000000;" parent="48" source="87" target="88" edge="1">
                    <mxGeometry relative="1" as="geometry"/>
                </mxCell>
                <mxCell id="87" value="日記の記録内容を&lt;br&gt;確定する" style="rounded=1;whiteSpace=wrap;html=1;fillColor=none;" parent="48" vertex="1">
                    <mxGeometry x="135" y="620" width="170" height="50" as="geometry"/>
                </mxCell>
                <mxCell id="91" style="edgeStyle=orthogonalEdgeStyle;rounded=0;html=1;exitX=0.5;exitY=1;exitDx=0;exitDy=0;entryX=0.5;entryY=0;entryDx=0;entryDy=0;fontColor=#000000;" parent="48" source="88" target="64" edge="1">
                    <mxGeometry relative="1" as="geometry"/>
                </mxCell>
                <mxCell id="88" value="「過去の日記を表示する画面」&lt;br&gt;を表示する" style="rounded=1;whiteSpace=wrap;html=1;fillColor=none;" parent="48" vertex="1">
                    <mxGeometry x="99.09181818181818" y="700" width="241.8181818181818" height="50" as="geometry"/>
                </mxCell>
                <mxCell id="94" value="[修正]" style="text;html=1;strokeColor=none;fillColor=none;align=center;verticalAlign=middle;whiteSpace=wrap;rounded=0;shadow=0;sketch=0;fillStyle=auto;strokeWidth=1;fontColor=#000000;" parent="48" vertex="1">
                    <mxGeometry x="5" y="540" width="45" height="30" as="geometry"/>
                </mxCell>
                <mxCell id="95" value="[文字数制限内]" style="text;html=1;strokeColor=none;fillColor=none;align=center;verticalAlign=middle;whiteSpace=wrap;rounded=0;shadow=0;sketch=0;fillStyle=auto;strokeWidth=1;fontColor=#000000;" parent="48" vertex="1">
                    <mxGeometry x="210" y="410" width="130" height="30" as="geometry"/>
                </mxCell>
                <mxCell id="96" value="[文字数制限オーバー]" style="text;html=1;strokeColor=none;fillColor=none;align=center;verticalAlign=middle;whiteSpace=wrap;rounded=0;shadow=0;sketch=0;fillStyle=auto;strokeWidth=1;fontColor=#000000;" parent="48" vertex="1">
                    <mxGeometry x="270" y="320" width="130" height="30" as="geometry"/>
                </mxCell>
                <mxCell id="97" value="[確定]" style="text;html=1;strokeColor=none;fillColor=none;align=center;verticalAlign=middle;whiteSpace=wrap;rounded=0;shadow=0;sketch=0;fillStyle=auto;strokeWidth=1;fontColor=#000000;" parent="48" vertex="1">
                    <mxGeometry x="5" y="610" width="45" height="30" as="geometry"/>
                </mxCell>
                <mxCell id="98" value="「操作の確認を行う画面」&lt;br&gt;を表示する" style="rounded=1;whiteSpace=wrap;html=1;fillColor=none;" vertex="1" parent="48">
                    <mxGeometry x="135" y="100" width="170" height="40" as="geometry"/>
                </mxCell>
                <mxCell id="107" value="[取り消し]" style="text;html=1;strokeColor=none;fillColor=none;align=center;verticalAlign=middle;whiteSpace=wrap;rounded=0;shadow=0;sketch=0;fillStyle=auto;strokeWidth=1;fontColor=#000000;" vertex="1" parent="48">
                    <mxGeometry x="10" y="190" width="69" height="30" as="geometry"/>
                </mxCell>
                <mxCell id="109" value="[確定]" style="text;html=1;strokeColor=none;fillColor=none;align=center;verticalAlign=middle;whiteSpace=wrap;rounded=0;shadow=0;sketch=0;fillStyle=auto;strokeWidth=1;fontColor=#000000;" vertex="1" parent="48">
                    <mxGeometry x="10" y="250" width="69" height="30" as="geometry"/>
                </mxCell>
                <mxCell id="63" style="html=1;exitX=0.5;exitY=1;exitDx=0;exitDy=0;entryX=1;entryY=0.5;entryDx=0;entryDy=0;edgeStyle=orthogonalEdgeStyle;rounded=0;" parent="42" source="51" target="58" edge="1">
                    <mxGeometry relative="1" as="geometry"/>
                </mxCell>
                <mxCell id="72" style="edgeStyle=orthogonalEdgeStyle;html=1;exitX=0.5;exitY=1;exitDx=0;exitDy=0;entryX=0;entryY=0.5;entryDx=0;entryDy=0;fontColor=#000000;rounded=0;" parent="42" source="58" target="70" edge="1">
                    <mxGeometry relative="1" as="geometry"/>
                </mxCell>
                <mxCell id="82" style="edgeStyle=orthogonalEdgeStyle;html=1;exitX=0;exitY=0.5;exitDx=0;exitDy=0;fontColor=#000000;rounded=0;" parent="42" source="71" target="81" edge="1">
                    <mxGeometry relative="1" as="geometry"/>
                </mxCell>
                <mxCell id="86" style="edgeStyle=orthogonalEdgeStyle;html=1;exitX=1;exitY=0.5;exitDx=0;exitDy=0;entryX=0.5;entryY=1;entryDx=0;entryDy=0;fontColor=#000000;rounded=0;" parent="42" source="83" target="75" edge="1">
                    <mxGeometry relative="1" as="geometry">
                        <Array as="points">
                            <mxPoint x="720" y="592"/>
                        </Array>
                    </mxGeometry>
                </mxCell>
                <mxCell id="89" style="edgeStyle=orthogonalEdgeStyle;rounded=0;html=1;exitX=0.5;exitY=1;exitDx=0;exitDy=0;entryX=0;entryY=0.5;entryDx=0;entryDy=0;fontColor=#000000;" parent="42" source="83" target="87" edge="1">
                    <mxGeometry relative="1" as="geometry"/>
                </mxCell>
                <mxCell id="99" style="edgeStyle=orthogonalEdgeStyle;html=1;exitX=1;exitY=0.5;exitDx=0;exitDy=0;entryX=0;entryY=0.5;entryDx=0;entryDy=0;rounded=0;" edge="1" parent="42" source="50" target="98">
                    <mxGeometry relative="1" as="geometry"/>
                </mxCell>
                <mxCell id="102" style="edgeStyle=orthogonalEdgeStyle;rounded=0;html=1;exitX=0.5;exitY=1;exitDx=0;exitDy=0;entryX=0.5;entryY=0;entryDx=0;entryDy=0;" edge="1" parent="42" source="98" target="100">
                    <mxGeometry relative="1" as="geometry"/>
                </mxCell>
                <mxCell id="105" style="edgeStyle=orthogonalEdgeStyle;rounded=0;html=1;exitX=1;exitY=0.5;exitDx=0;exitDy=0;entryX=1;entryY=0.5;entryDx=0;entryDy=0;" edge="1" parent="42" source="103" target="64">
                    <mxGeometry relative="1" as="geometry">
                        <mxPoint x="530" y="245" as="targetPoint"/>
                        <Array as="points">
                            <mxPoint x="750" y="245"/>
                            <mxPoint x="750" y="810"/>
                        </Array>
                    </mxGeometry>
                </mxCell>
                <mxCell id="108" style="edgeStyle=orthogonalEdgeStyle;rounded=0;html=1;exitX=0.5;exitY=1;exitDx=0;exitDy=0;entryX=0;entryY=0.5;entryDx=0;entryDy=0;" edge="1" parent="42" source="103" target="51">
                    <mxGeometry relative="1" as="geometry"/>
                </mxCell>
            </root>
        </mxGraphModel>
    </diagram>
</mxfile>